<svg width="26" height="30" viewBox="0 0 26 30" fill="none" xmlns="http://www.w3.org/2000/svg">
<path d="M0.609376 14.151C0.609376 12.6975 0.61067 11.6686 0.715493 10.889C0.817959 10.1268 1.00919 9.69467 1.3233 9.38056C1.63741 9.06645 2.06957 8.87521 2.8317 8.77275C3.61136 8.66792 4.64022 8.66663 6.09376 8.66663H14.2188C15.6723 8.66663 16.7012 8.66792 17.4808 8.77275C18.243 8.87521 18.6751 9.06645 18.9892 9.38056C19.3033 9.69467 19.4946 10.1268 19.597 10.889C19.7018 11.6686 19.7031 12.6975 19.7031 14.151V19.5677C19.7031 22.4552 19.6945 23.7436 19.3384 24.7614C18.6851 26.6285 17.2171 28.0965 15.35 28.7498C14.3322 29.1059 13.0438 29.1146 10.1563 29.1146C7.26872 29.1146 5.98035 29.1059 4.96257 28.7498C3.09546 28.0965 1.62746 26.6285 0.974134 24.7614C0.617996 23.7436 0.609376 22.4552 0.609376 19.5677V14.151Z" stroke="#FF9F24" stroke-width="1.2"/>
<path d="M19.2969 21.9375H22.3438C24.0265 21.9375 25.3906 20.5734 25.3906 18.8906V15.8437C25.3906 14.161 24.0265 12.7969 22.3438 12.7969H19.2969" stroke="#FF9F24" stroke-width="1.2"/>
<path d="M6.69552 0.609351C6.69552 0.609351 8.04946 1.96352 6.69552 3.31769C5.34159 4.67185 6.69552 6.02602 6.69552 6.02602" stroke="#FF9F24" stroke-width="1.2" stroke-linecap="round" stroke-linejoin="round"/>
<path d="M10.758 0.609351C10.758 0.609351 12.112 1.96352 10.758 3.31769C9.40409 4.67185 10.758 6.02602 10.758 6.02602" stroke="#FF9F24" stroke-width="1.2" stroke-linecap="round" stroke-linejoin="round"/>
<path d="M14.8205 0.609351C14.8205 0.609351 16.1745 1.96352 14.8205 3.31769C13.4666 4.67185 14.8205 6.02602 14.8205 6.02602" stroke="#FF9F24" stroke-width="1.2" stroke-linecap="round" stroke-linejoin="round"/>
</svg>
