<svg width="32" height="32" viewBox="0 0 32 32" fill="none" xmlns="http://www.w3.org/2000/svg">
<path d="M15.733 25.5733C16.4988 25.5733 17.1196 24.9525 17.1196 24.1867C17.1196 23.4208 16.4988 22.8 15.733 22.8C14.9671 22.8 14.3463 23.4208 14.3463 24.1867C14.3463 24.9525 14.9671 25.5733 15.733 25.5733Z" fill="#FF9F24"/>
<path d="M20.0131 20.56C18.9865 19.3333 17.4665 18.5466 15.7331 18.5466C13.9998 18.5466 12.4798 19.3333 11.4531 20.56" stroke="#FF9F24" stroke-width="1.2" stroke-miterlimit="10" stroke-linecap="round" stroke-linejoin="round"/>
<path d="M23.2802 16.2667C21.4668 14.1333 18.7602 12.76 15.7335 12.76C12.7068 12.76 10.0002 14.12 8.18683 16.2667" stroke="#FF9F24" stroke-width="1.2" stroke-miterlimit="10" stroke-linecap="round" stroke-linejoin="round"/>
<path d="M26.6668 12.5466C24.0401 9.43998 20.1201 7.46664 15.7334 7.46664C11.3468 7.46664 7.42678 9.43998 4.80011 12.5466" stroke="#FF9F24" stroke-width="1.2" stroke-miterlimit="10" stroke-linecap="round" stroke-linejoin="round"/>
</svg>
